<svg width="190" height="190" viewBox="0 0 190 190" fill="none" xmlns="http://www.w3.org/2000/svg">
<path d="M183.236 107.496C183.236 150.642 148.257 185.621 105.111 185.621C61.9648 185.621 26.9805 150.648 26.9805 107.496C26.9805 64.3446 61.9594 29.3711 105.105 29.3711C110.806 29.3711 116.36 29.9811 121.715 31.1416C126.854 32.2536 131.809 33.873 136.516 35.9404C164.024 48.0319 183.236 75.5238 183.236 107.496Z" fill="#ECF3FE"/>
<path opacity="0.22" d="M148.427 165.87L121.707 31.1367H121.712C126.851 32.2487 131.807 33.8681 136.514 35.9355L148.427 165.87Z" fill="#003889"/>
<path d="M2.4375 29.7825L124.038 15.9961L148.426 165.871L26.4747 178.95L2.4375 29.7825Z" fill="#43D3FF"/>
<path d="M18.582 37.3207L117.554 24.5977L119.746 53.072L108.917 62.9287L81.9759 47.9277L72.5511 64.424L60.7673 59.2419L47.8013 74.3185L30.5979 67.2471L24.0016 74.3185C24.0016 74.3185 19.7588 65.3632 18.582 37.3207Z" fill="white"/>
<path opacity="0.22" d="M123.463 67.6386C123.463 67.6386 133.498 124.787 144.332 155.685L54.558 180.251C54.558 180.251 37.9376 132.285 32.5234 89.63L38.8715 83.622L54.3367 90.1266L64.9005 77.3496L74.1797 82.5478L87.7286 63.4336L111.464 75.741L123.463 67.6386Z" fill="#003889"/>
<path d="M120.859 58.7672C120.859 58.7672 136.41 115.322 150.197 145.372L63.2406 178.953C63.2406 178.953 42.0319 132.293 32.4883 89.8758L38.2209 83.1985L54.2475 88.224L63.5159 74.3188L73.2538 78.6372L84.8811 58.0547L109.701 68.1111L120.859 58.7672Z" fill="white"/>
<path d="M83.3317 9.73472L82.4248 1.7565C82.3007 0.671504 81.3183 -0.111205 80.2333 0.0129488L51.4782 3.27873C50.3932 3.40288 49.6105 4.38531 49.7347 5.47031L50.6415 13.4485C50.7657 14.5335 49.983 15.516 48.898 15.6401L27.7487 18.0422C26.6637 18.1664 25.881 19.1488 26.0051 20.2338L28.3964 41.2751C28.5206 42.3601 29.503 43.1428 30.588 43.0187L109.512 34.0526C110.597 33.9285 111.38 32.946 111.255 31.861L108.864 10.8197C108.74 9.73471 107.758 8.95201 106.673 9.07616L85.5233 11.4783C84.4383 11.6024 83.4559 10.8197 83.3317 9.73472Z" fill="#264577"/>
<path d="M105.16 96.1647L102.207 93.8867L83.989 117.541L60.3404 99.3225L58.0625 102.275L81.7165 120.493L63.4983 144.142L66.451 146.414L84.6692 122.766L108.318 140.984L110.596 138.031L86.9417 119.813L105.16 96.1647Z" fill="#ECF3FE"/>
<path d="M100.027 113.27C91.4824 113.27 84.5352 106.317 84.5352 97.7774C84.5352 89.2324 91.4878 82.2852 100.027 82.2852C108.572 82.2852 115.52 89.2378 115.52 97.7774C115.52 106.322 108.572 113.27 100.027 113.27ZM100.027 86.4524C93.7819 86.4524 88.7024 91.5319 88.7024 97.7774C88.7024 104.023 93.7819 109.102 100.027 109.102C106.273 109.102 111.352 104.023 111.352 97.7774C111.352 91.5319 106.273 86.4524 100.027 86.4524Z" fill="#33DA82"/>
<path d="M100.027 110.663L105.058 109.648L107.163 157.577L105.436 157.912L100.027 110.663Z" fill="#33DA82"/>
<path d="M128.937 177.793L130.006 181.561L126.216 181.928L125.504 178.954L128.937 177.793Z" fill="white"/>
<path d="M120.742 187.522C120.58 186.162 121.697 185.498 123.824 184.348C125.255 183.576 125.73 182.313 125.886 181.568L130.113 180.996L131.425 184.203C131.581 184.586 131.387 185.023 130.998 185.163C128.58 186.022 120.877 188.667 120.742 187.522Z" fill="#15315E"/>
<path d="M151.02 177.328L152.402 180.993L148.656 181.679L147.695 178.775L151.02 177.328Z" fill="white"/>
<path d="M142.657 186.422C142.63 185.057 143.806 184.501 146.036 183.567C147.536 182.941 148.13 181.726 148.362 181.003L152.621 180.852L153.615 184.171C153.733 184.571 153.496 184.986 153.091 185.084C150.608 185.699 142.678 187.577 142.657 186.422Z" fill="#15315E"/>
<path d="M116.52 121.367L117.75 124.077L120.384 120.412L119.353 118.452L118.841 117.48L116.52 121.367Z" fill="#FDC8AA"/>
<path d="M141.458 134.201C141.458 134.201 138.98 137.78 133.102 137.629C127.223 137.478 132.611 132.668 132.611 132.668L141.458 134.201Z" fill="#E59D29"/>
<path d="M152.056 178.991L147.408 180.173L137.621 162.366L132.245 152.584L131.068 150.441L129.6 147.769L128.283 138.501L128.078 137.071L127.867 135.581L133.271 134.069L135.98 132.504C135.98 132.504 136.223 132.731 136.59 133.141L137.492 132.887C138.005 133.314 138.631 134.107 139.138 135.559C139.791 137.421 140.245 140.369 140.018 145.038L152.056 178.991Z" fill="#1F3A6F"/>
<path d="M138.474 145.848L137.616 162.365L131.062 150.441L138.474 145.848Z" fill="#072542"/>
<path d="M138.968 145.008C137.435 147.815 134.763 150.476 132.237 152.587C128.971 155.318 125.943 157.132 125.943 157.132L130.132 179.507L124.966 180.856C124.966 180.856 114.629 159.156 117.927 153.24C120.345 148.905 123.487 142.914 124.987 140.031C125.533 138.984 125.862 138.347 125.862 138.347L128.064 137.078L133.257 134.077L135.967 132.512C135.967 132.512 136.21 132.738 136.577 133.149C137.063 133.694 137.764 134.558 138.407 135.659C139.799 138.023 140.911 141.456 138.968 145.008Z" fill="#1F3A6F"/>
<path d="M139.134 135.555C138.967 135.571 138.724 135.603 138.411 135.647C136.684 135.889 132.856 136.591 128.274 138.502C127.216 138.945 126.12 139.447 124.997 140.024L123.934 136.678L127.858 135.576L133.261 134.065L136.581 133.137L137.483 132.883C138.001 133.315 138.627 134.108 139.134 135.555Z" fill="#072542"/>
<path d="M122.457 120C122.457 120 129.971 120.901 134.608 123.573C136.227 124.507 137.334 126.127 137.631 127.973L138.473 133.203L122.954 121.879L122.457 120Z" fill="#FDC8AA"/>
<path d="M116.52 121.365L117.178 122.811C118.247 122.147 119.04 119.373 119.353 118.45L118.841 117.473L116.52 121.365Z" fill="#EFA37D"/>
<path d="M119.343 116.697C119.311 117.226 119.176 117.804 118.939 118.419C118.874 118.581 118.804 118.748 118.728 118.916C118.388 119.655 117.897 120.438 117.254 121.248C115.165 123.887 113.168 120.244 113.033 120.017C112.904 119.79 111.02 119.65 111.209 119.169C111.317 118.899 111.662 117.663 111.878 116.638C111.943 116.335 111.997 116.055 112.045 115.828C112.105 115.547 112.148 115.348 112.169 115.294C112.537 114.408 113.891 113.928 115.3 113.82C116.866 113.701 118.501 114.041 118.949 114.813C119.252 115.337 119.392 115.974 119.343 116.697Z" fill="#FDC8AA"/>
<path d="M115.169 115.431C115.018 115.631 114.84 115.798 114.645 115.938C113.793 116.548 112.583 116.64 111.876 116.635C111.941 116.332 111.995 116.052 112.044 115.825C111.779 115.749 111.59 115.663 111.455 115.604C111.401 115.577 111.353 115.539 111.32 115.485C111.671 115.102 111.995 114.762 112.049 114.697C112.179 114.54 114.073 113.439 114.322 113.32C114.451 113.261 114.98 113.428 115.299 113.817C115.59 114.173 115.703 114.713 115.169 115.431Z" fill="#EFA37D"/>
<path d="M141.461 134.205C134.428 133.309 124.997 140.029 124.997 140.029L123.416 138.183L119.999 134.194L121.008 131.798L115.551 130.302C115.459 125.746 116.927 122.956 117.996 121.541C118.709 120.591 121.057 119.765 122.239 119.668C129.791 119.026 141.461 134.205 141.461 134.205Z" fill="#F4B545"/>
<path d="M123.413 138.179L119.996 134.19L121.006 131.793C121.006 131.793 122.539 135.383 123.413 138.179Z" fill="#E59D29"/>
<path d="M121.008 131.796C121.008 131.796 120.975 132.638 120.819 133.777C120.489 136.174 119.604 139.898 117.288 139.952C114.465 140.012 107.864 134.43 105.634 132.465C105.094 131.99 104.409 131.72 103.696 131.71C103.367 131.704 103.049 131.72 102.854 131.785C102.304 131.958 101.575 131.931 101.294 131.089C101.013 130.247 101.219 128.768 102.25 129.124C103.281 129.48 103.729 129.594 103.464 128.471C103.205 127.348 104.117 127.645 104.117 127.645C104.117 127.645 104.117 129.275 104.528 129.648C104.938 130.02 115.545 134.042 115.545 134.042L115.55 131.019V130.301L121.008 131.796Z" fill="#FDC8AA"/>
<path d="M121.01 131.796C121.01 131.796 120.977 132.638 120.821 133.777L115.552 131.013H115.547L115.552 130.301L121.01 131.796Z" fill="#EFA37D"/>
<path d="M119.585 114.764C119.882 115.45 119.882 116.238 119.753 116.902C119.607 117.636 119.305 118.23 119.072 118.37C119.04 118.392 118.991 118.408 118.943 118.419C118.5 118.5 117.529 118.122 116.989 117.836C116.816 117.744 116.687 117.663 116.638 117.609C116.6 117.571 116.589 117.512 116.595 117.442C116.595 117.415 116.6 117.383 116.606 117.35C116.687 116.913 117.091 116.076 116.687 115.267C116.174 114.235 115.035 115.887 115.035 115.887C114.9 115.909 114.776 115.93 114.652 115.947C113.405 116.109 112.579 115.99 112.05 115.833C111.785 115.758 111.596 115.671 111.461 115.612C111.407 115.585 111.359 115.547 111.326 115.493C111.094 115.148 111.289 114.3 111.434 114.09C111.607 113.847 108.951 113.318 110.16 112.082C111.37 110.84 114.301 110.581 116.228 111.029C118.155 111.466 118.954 113.323 119.585 114.764Z" fill="#1F3A6F"/>
<path d="M39.1805 176.141C40.2979 179.709 41.1292 182.37 41.1292 182.37C41.1292 182.37 43.2722 185.312 44.1574 185.242C45.0427 185.171 43.6716 186.116 43.6716 186.116L38.6677 183.763L35.4883 177.301L39.1805 176.141Z" fill="#FDC8AA"/>
<path d="M43.4643 185.418C43.4643 185.418 44.1012 185.516 44.2038 185.073C44.3064 184.63 47.2375 185.051 46.4278 186.185C45.6181 187.313 42.7895 188.004 41.9906 187.572C41.1917 187.14 39.6533 185.03 39.4104 185.758C39.1729 186.493 40.1013 188.749 40.1013 188.749L39.3996 188.97C39.3996 188.97 36.0205 183.248 38.3416 182.293C38.3416 182.288 39.7073 184.441 43.4643 185.418Z" fill="#1F3A6F"/>
<path d="M9.29382 177.8C7.42072 181.038 6.02804 183.451 6.02804 183.451C6.02804 183.451 5.31011 187.019 5.96326 187.624C6.61642 188.229 4.99162 187.862 4.99162 187.862L3.33984 182.582L5.94707 175.867L9.29382 177.8Z" fill="#FDC8AA"/>
<path d="M5.3656 187.232C5.3656 187.232 5.72186 187.767 6.12131 187.54C6.52076 187.313 8.18874 189.758 6.80686 189.926C5.42497 190.093 3.00668 188.479 2.77996 187.599C2.55325 186.719 3.07145 184.155 2.36972 184.474C1.66798 184.792 0.636961 187.005 0.636961 187.005L0 186.638C0 186.638 1.92168 180.28 4.19963 181.338C4.20503 181.343 3.54648 183.804 5.3656 187.232Z" fill="#1F3A6F"/>
<path d="M3.41406 178.759L7.41397 182.348L26.3231 153.075L32.2447 169.766L36.4281 181.566L41.1082 180L30.9438 139.37L30.6577 138.22L21.4433 137.707C20.639 138.279 19.9373 139.137 19.3381 140.179C19.2517 140.325 19.1708 140.476 19.0898 140.627C18.8415 141.102 18.604 141.604 18.3881 142.128C16.6661 146.306 15.9644 151.882 15.6837 154.371C15.268 158.009 3.41406 178.759 3.41406 178.759Z" fill="#1F3A6F"/>
<path d="M18.3906 142.139C19.2273 143.591 20.62 145.458 20.62 145.458L21.1976 144.865L19.8859 139.969L19.3407 140.179C19.2543 140.325 19.1733 140.476 19.0924 140.627C18.8387 141.113 18.6065 141.615 18.3906 142.139Z" fill="#072542"/>
<path d="M35.8945 135.566C35.8945 135.566 36.7906 135.911 37.6327 136.095C37.9997 136.176 38.356 136.224 38.6259 136.203C39.522 136.132 42.0482 134.2 43.5435 131.787C45.0387 129.374 47.403 127.058 47.9158 127.102C48.4286 127.145 49.4273 126.95 49.4111 126.729C49.3949 126.508 49.2114 126.546 49.2114 126.546C48.5312 126.578 48.4125 126.098 49.0818 125.957C49.7512 125.817 50.9873 125.142 50.9063 124.807C50.82 124.478 50.5339 124.489 50.5339 124.489C46.7445 124.046 38.491 132.791 38.491 132.791L38.2858 132.553L37.4707 131.598L35.8945 135.566Z" fill="#FDC8AA"/>
<path d="M35.8945 135.564C35.8945 135.564 36.7906 135.909 37.6327 136.093L38.2804 132.557L37.4653 131.602L35.8945 135.564Z" fill="#EFA37D"/>
<path d="M32.2419 169.769L26.3203 153.073C26.3203 153.073 27.9451 150.077 28.3014 149.078L32.2419 169.769Z" fill="#072542"/>
<path d="M21.1369 146.292L19.8359 147.453L20.624 145.461L22.8048 144.02L23.0262 144.678L21.1369 146.292Z" fill="#072542"/>
<path d="M19.0859 140.637C21.8065 140.351 29.0128 139.584 30.9453 139.374L30.6592 138.224L21.4449 137.711C20.5272 138.364 19.7445 139.395 19.0859 140.637Z" fill="#072542"/>
<path d="M20.8633 126.413C20.8633 126.413 22.0832 125.555 22.3639 120.578C22.6392 115.601 22.5582 110.365 28.0588 110.856C33.5593 111.348 31.5027 118.856 31.5621 120.287C31.6215 121.717 32.0641 125.609 32.0641 125.609L20.8633 126.413Z" fill="#1F3A6F"/>
<path d="M22.168 124.689C22.168 124.689 23.6578 128.225 27.8089 127.928C31.9599 127.626 31.3715 124.392 31.3715 124.392L28.6617 122.983L28.5916 122.314L28.4404 120.894L25.3636 118.973V121.45V122.233L22.168 124.689Z" fill="#FDC8AA"/>
<path d="M38.6535 131.198L35.9276 137.082L33.2016 133.422C32.6024 137.039 31.5282 138.982 31.5282 138.982L24.7105 138.82L20.5217 138.723L21.8172 133.978L20.8348 134.907L16.457 130.524L22.1681 124.699C28.4244 130.88 31.3717 124.402 31.3717 124.402C34.0814 125.806 38.6535 131.198 38.6535 131.198Z" fill="#F4B545"/>
<path d="M33.2031 133.42C33.2031 133.42 33.5702 132.21 33.3327 131.039L35.9291 137.079L33.2031 133.42Z" fill="#E59D29"/>
<path d="M24.7123 138.817L20.5234 138.719L21.819 133.975L23.1631 132.695C23.0659 132.836 20.2373 137.181 24.7123 138.817Z" fill="#E59D29"/>
<path d="M25.3594 118.98V121.458C26.1691 121.879 27.6913 122.565 28.5874 122.322L28.4362 120.902L25.3594 118.98Z" fill="#EFA37D"/>
<path d="M30.4513 113.184C30.4513 113.184 32.4 116.287 29.9763 120.854C29.8197 121.146 29.539 121.345 29.2259 121.394C28.2489 121.54 26.365 121.837 25.3016 119.202C25.3016 119.202 24.2166 118.619 24.5351 117.005C24.8536 115.391 25.7712 117.027 25.7712 117.027C25.7712 117.027 29.9493 115.148 30.4513 113.184Z" fill="#FDC8AA"/>
<path d="M17.073 137.193C17.6938 139.229 21.1323 146.294 21.1323 146.294L23.0216 144.68C23.0216 144.68 21.861 141.264 21.1161 138.732C21.0027 138.354 20.9002 137.992 20.8138 137.663C20.6303 136.994 20.5115 136.476 20.4953 136.222C20.4683 135.779 20.4791 135.32 20.5007 134.916C20.5061 134.797 20.5115 134.683 20.5223 134.575L17.046 131.094C16.9974 131.482 16.938 132.071 16.8895 132.74C16.7761 134.214 16.7383 136.081 17.073 137.193Z" fill="#FDC8AA"/>
<path d="M16.8867 132.744L20.498 134.919C20.5034 134.801 20.5088 134.687 20.5196 134.579L17.0433 131.098C17.0001 131.492 16.9353 132.075 16.8867 132.744Z" fill="#EFA37D"/>
<path opacity="0.22" d="M168.865 97.4721C180.149 97.4721 189.296 88.3247 189.296 77.0407C189.296 65.7568 180.149 56.6094 168.865 56.6094C157.581 56.6094 148.434 65.7568 148.434 77.0407C148.434 88.3247 157.581 97.4721 168.865 97.4721Z" fill="#003889"/>
<path d="M166.619 93.8862C177.903 93.8862 187.05 84.7387 187.05 73.4548C187.05 62.1709 177.903 53.0234 166.619 53.0234C155.335 53.0234 146.188 62.1709 146.188 73.4548C146.188 84.7387 155.335 93.8862 166.619 93.8862Z" fill="#F4B545"/>
<path d="M164.395 80.0355C163.456 79.717 162.856 78.8048 163.083 77.9627L166.889 63.6742C167.434 61.623 169.253 60.2465 170.878 60.7917C172.503 61.3423 173.118 63.5393 172.308 65.4988L166.694 79.1826C166.36 79.9869 165.334 80.354 164.395 80.0355Z" fill="white"/>
<path d="M164.904 85.5095C165.877 84.5356 165.877 82.9566 164.904 81.9827C163.93 81.0088 162.351 81.0088 161.377 81.9827C160.403 82.9566 160.403 84.5356 161.377 85.5095C162.351 86.4834 163.93 86.4834 164.904 85.5095Z" fill="white"/>
</svg>
