<svg width="46" height="46" viewBox="0 0 46 46" fill="none" xmlns="http://www.w3.org/2000/svg">
<circle cx="23" cy="23" r="21.5" fill="white" stroke="#4CAF50" stroke-width="3"/>
<path d="M27.7473 18.6712L27.2178 20.6856H17.4257L17.9657 18.6712H27.7473ZM22.7319 30L17.7269 24.0708L17.7165 22.2951H20.1567C20.7244 22.2951 21.1916 22.1844 21.5585 21.9629C21.9254 21.7413 22.1989 21.4437 22.3789 21.0698C22.5588 20.6891 22.6488 20.2668 22.6488 19.803C22.6488 19.3184 22.5658 18.8892 22.3996 18.5154C22.2335 18.1416 21.967 17.8508 21.6001 17.6432C21.2332 17.4286 20.7451 17.3213 20.1359 17.3213H17.4361L18.0488 14.881H20.1359C21.382 14.881 22.4204 15.0679 23.2511 15.4418C24.0818 15.8156 24.7049 16.3556 25.1202 17.0617C25.5356 17.7608 25.7432 18.6089 25.7432 19.6057C25.7432 20.478 25.6048 21.2429 25.3279 21.9006C25.051 22.5582 24.6114 23.1016 24.0091 23.5308C23.4069 23.9531 22.6142 24.2508 21.6312 24.4238L26.1378 29.8546V30H22.7319ZM27.7681 14.881L27.2281 16.8851H19.1183L19.6583 14.881H27.7681Z" fill="black"/>
</svg>
