<?xml version="1.0" encoding="UTF-8"?>
<!DOCTYPE svg PUBLIC "-//W3C//DTD SVG 1.0//EN" "http://www.w3.org/TR/2001/REC-SVG-20010904/DTD/svg10.dtd">
<!-- Creator: CorelDRAW X7 -->
<svg xmlns="http://www.w3.org/2000/svg" xml:space="preserve" width="0.497882in" height="0.361016in" version="1.0" style="shape-rendering:geometricPrecision; text-rendering:geometricPrecision; image-rendering:optimizeQuality; fill-rule:evenodd; clip-rule:evenodd"
viewBox="0 0 47 34"
 xmlns:xlink="http://www.w3.org/1999/xlink">
 <defs>
  <style type="text/css">
   <![CDATA[
    .fil0 {fill:#66CC00}
    .fil1 {fill:#FFAC12}
   ]]>
  </style>
 </defs>
 <g id="Letterhead">
  <metadata id="CorelCorpID_0Corel-Layer"/>
  <path class="fil0" d="M21 23l-1 0 0 0 0 0 -1 0 0 0 0 0 0 0 -1 0 0 0 0 0 -1 0 0 0 0 0 0 1 -1 0 0 0 0 0 0 0 0 0 0 0 -1 0 0 0 0 0 0 0 0 0 0 0 -1 0 0 0 0 0 0 0 0 0 -1 0 0 1 0 0 0 0 0 0 0 0c-2,1 -14,6 -13,9 1,1 21,0 24,0 3,0 22,1 23,0 1,-3 -10,-8 -12,-9l0 0 0 0 -1 0 0 0 0 -1 0 0 0 0 0 0 -1 0 0 0 0 0 0 0 0 0 0 0 -1 0 0 0 0 0 0 0 0 0 0 0 0 0 -1 0 0 0 0 0 0 0 0 -1 0 0 -1 0 0 0 0 0 0 0 0 0 -1 0 0 0 0 0 -1 0 0 0 0 0 0 0 -1 0 0 0 -1 0 0 0 -1 0 -3 0 0 0 -1 0z"/>
  <path class="fil1" d="M13 25l0 0 0 0 0 0 0 0 0 -1 1 0 0 0 0 0 0 0 0 0 1 0 0 0 0 0 0 0 0 0 0 0 1 0 0 0 0 0 0 0 0 0 0 0 1 0 0 -1 0 0 0 0 1 0 0 0 0 0 1 0 0 0 0 0 0 0 1 0 0 0 0 0 1 0 1 0 0 0c1,-1 3,-1 3,0l1 0 0 0 1 0 0 0 1 0 0 0 0 0 0 0 1 0 0 0 0 0 1 0 0 0 0 0 0 0 0 0 1 0 0 0 0 0 0 1 0 0 0 0 1 0 0 0 0 0 0 0 0 0 0 0 0 0 1 0 0 0 0 0 0 0 0 0 0 0 1 0 0 0 0 0 0 0 0 1 0 0 1 0 0 0 0 0c6,-21 -28,-21 -22,0z"/>
  <path class="fil1" d="M4 19c-1,1 -1,2 0,3 1,0 4,0 5,0 2,-1 0,-4 -5,-3z"/>
  <path class="fil1" d="M39 19c-2,1 -1,2 0,3 0,0 4,0 4,0 3,-1 1,-4 -4,-3z"/>
  <path class="fil1" d="M40 10c-1,0 -2,1 -3,1 -2,1 -1,3 0,3 5,-1 6,-5 3,-4z"/>
  <path class="fil1" d="M33 3c-2,0 -4,7 -1,5 1,0 4,-7 1,-5z"/>
  <path class="fil1" d="M7 10c-4,1 3,4 4,4 3,-1 -3,-5 -4,-4z"/>
  <path class="fil1" d="M23 0c-1,1 -1,7 1,6 1,0 2,-7 -1,-6z"/>
  <path class="fil1" d="M14 3c-2,1 1,6 3,5 2,-1 -2,-6 -3,-5z"/>
  <path class="fil1" d="M25 23c0,-1 -2,-1 -3,0l3 0z"/>
  <path class="fil1" d="M27 23l-1 0 0 0 1 0z"/>
  <path class="fil1" d="M26 23l0 0 0 0 0 0z"/>
  <path class="fil1" d="M20 23l0 0 0 0 0 0z"/>
  <path class="fil1" d="M20 23l0 0 0 0 0 0z"/>
  <path class="fil1" d="M28 23l0 0 -1 0 1 0z"/>
  <path class="fil1" d="M28 23l0 0 0 0 0 0z"/>
  <path class="fil1" d="M19 23l0 0 0 0 0 0z"/>
  <path class="fil1" d="M28 23l0 0 0 0 0 0z"/>
  <path class="fil1" d="M29 23l-1 0 0 0 1 0z"/>
  <path class="fil1" d="M19 23l0 0 0 0 0 0z"/>
  <path class="fil1" d="M30 23l0 0 0 0 0 0z"/>
  <path class="fil1" d="M30 23l0 0 0 0 0 0z"/>
  <path class="fil1" d="M30 23l0 0 0 0 0 0z"/>
  <path class="fil1" d="M31 24l0 -1 0 0 0 1z"/>
  <path class="fil1" d="M31 24l0 -1 0 1 0 0z"/>
  <path class="fil1" d="M31 23l-1 0 0 0 1 0z"/>
  <path class="fil1" d="M16 24l0 0 0 0 0 0z"/>
  <path class="fil1" d="M31 24l0 0 0 0 0 0z"/>
  <path class="fil1" d="M32 24l0 0 0 0 0 0z"/>
  <path class="fil1" d="M16 24l0 0 0 0 0 0z"/>
  <path class="fil1" d="M32 24l0 0 0 0 0 0z"/>
  <path class="fil1" d="M15 24l0 0 0 0 0 0z"/>
  <path class="fil1" d="M15 24l0 0 0 0 0 0z"/>
  <path class="fil1" d="M33 24l0 0 0 0 0 0z"/>
  <path class="fil1" d="M32 24l0 0 0 0 0 0z"/>
  <path class="fil1" d="M32 24l0 0 0 0 0 0z"/>
  <path class="fil1" d="M13 25l0 0 0 0 0 0z"/>
  <path class="fil1" d="M16 24l0 0 0 0 0 0z"/>
  <path class="fil1" d="M33 24l0 0 0 0 0 0z"/>
  <path class="fil1" d="M16 24l0 0 0 0 0 0z"/>
  <path class="fil1" d="M35 25l0 0 0 0 0 0z"/>
  <path class="fil1" d="M35 25l0 0 -1 0 1 0z"/>
  <path class="fil1" d="M32 24l-1 0 0 0 1 0z"/>
  <path class="fil1" d="M13 25l0 0 0 0 0 0z"/>
  <path class="fil1" d="M17 23l0 1 0 -1z"/>
  <path class="fil1" d="M15 24l-1 0 1 0z"/>
  <path class="fil1" d="M33 24l0 0 0 0z"/>
  <path class="fil1" d="M19 23l-1 0 1 0z"/>
  <path class="fil1" d="M14 24l0 0 0 0z"/>
  <path class="fil1" d="M34 24l-1 0 1 0z"/>
  <path class="fil1" d="M14 24l0 0 0 0z"/>
  <path class="fil1" d="M29 23l0 0 0 0z"/>
  <path class="fil1" d="M13 24l0 1 0 -1z"/>
  <path class="fil1" d="M34 25l0 -1 0 1z"/>
  <path class="fil1" d="M18 23l0 0 0 0z"/>
  <path class="fil1" d="M17 23l0 0 0 0z"/>
  <path class="fil1" d="M15 24l0 0 0 0z"/>
  <path class="fil1" d="M22 23l-1 0 1 0z"/>
  <path class="fil1" d="M34 24l0 0 0 0z"/>
 </g>
</svg>
